<?xml version="1.0" encoding="UTF-8"?>
<svg version="1.1" xmlns="http://www.w3.org/2000/svg" width="164" height="283">
<path d="M0 0 C54.12 0 108.24 0 164 0 C164 93.39 164 186.78 164 283 C109.88 283 55.76 283 0 283 C0 189.61 0 96.22 0 0 Z " fill="#F2F9F4" transform="translate(0,0)"/>
<path d="M0 0 C4.28290733 3.90815294 7.11945527 8.05032981 10 13.0625 C10.43715332 13.81982422 10.87430664 14.57714844 11.32470703 15.35742188 C22.53592239 35.09317837 27.47628488 56.37536416 21.97265625 78.72265625 C16.6920208 96.51564077 7.07443249 108.96162087 -9.09692383 117.94873047 C-15.82611609 121.56440017 -22.90979411 124.38934831 -29.97094727 127.28173828 C-46.19021834 133.95891738 -61.05986767 141.50895593 -69 158 C-69.33 158 -69.66 158 -70 158 C-69.48215676 133.14352441 -55.92353795 109.4811504 -39 92 C-38.22740845 91.18692383 -38.22740845 91.18692383 -37.43920898 90.35742188 C-33.32534426 86.11280146 -28.97876025 82.57245513 -24.1875 79.125 C-17.78829433 74.41674937 -11.68699214 69.56738045 -6 64 C-5.41863281 63.443125 -4.83726563 62.88625 -4.23828125 62.3125 C0.48362648 57.36460676 2.64803536 51.33781623 5 45 C3.8823383 46.00692855 3.8823383 46.00692855 3.1953125 47.6796875 C-2.65834928 59.68610326 -13.15883229 67.05652439 -23.72021484 74.65136719 C-29.09785789 78.53587087 -34.24921922 82.57807381 -39.25 86.9375 C-39.83297852 87.44458496 -40.41595703 87.95166992 -41.01660156 88.47412109 C-52.32425498 98.46898672 -61.19624796 109.44585867 -68 123 C-68.66 123 -69.32 123 -70 123 C-75.017673 107.51689475 -78.56338995 92.42759654 -71 77 C-62.14511233 61.37623184 -45.43746412 53.18519458 -30.15234375 44.90625 C-17.80966903 38.17854157 -5.43907826 29.02993082 -1 15 C-0.71132208 12.37194158 -0.49595962 9.82089169 -0.375 7.1875 C-0.33632812 6.49462891 -0.29765625 5.80175781 -0.2578125 5.08789062 C-0.16426432 3.39232985 -0.08107636 1.69620288 0 0 Z " fill="#7DB142" transform="translate(124,106)"/>
<path d="M0 0 C0.66 0.33 1.32 0.66 2 1 C1.67644531 1.70769531 1.35289063 2.41539063 1.01953125 3.14453125 C-1.84460276 11.16630122 -0.264689 20.32490096 3 28 C8.57501833 39.23687496 17.08362043 47.39977327 26.58886719 55.32470703 C33.94113002 61.47077135 40.92671102 67.53098623 47 75 C44.83473607 77.35175616 42.7191049 78.86148806 39.91015625 80.375 C39.12576172 80.80296875 38.34136719 81.2309375 37.53320312 81.671875 C36.71787109 82.11015625 35.90253906 82.5484375 35.0625 83 C33.44769062 83.87217663 31.8343571 84.7470924 30.22265625 85.625 C29.50859619 86.00914062 28.79453613 86.39328125 28.05883789 86.7890625 C25.93091412 87.97649331 25.93091412 87.97649331 23.92358398 89.6484375 C22 91 22 91 19 91 C17.20046299 88.99983893 15.6013517 87.02595979 14 84.875 C13.01740095 83.58557626 12.03431397 82.29652421 11.05078125 81.0078125 C10.54756348 80.34297852 10.0443457 79.67814453 9.52587891 78.99316406 C8.05726855 77.07480647 6.55899481 75.18571084 5.04296875 73.3046875 C-10.84128952 53.57377567 -10.84128952 53.57377567 -11.625 41.6875 C-11.69976563 40.61886719 -11.77453125 39.55023438 -11.8515625 38.44921875 C-11.90054687 37.64097656 -11.94953125 36.83273438 -12 36 C-13.33543982 55.79418577 -4.62360018 67.62562138 7.8125 81.9375 C8.92258251 83.19713882 10.03322916 84.45628077 11.14453125 85.71484375 C13.21353836 88.06734942 15.17714122 90.44799771 17 93 C15.58693487 96.12693125 13.85054764 98.46278824 11.625 101.0625 C4.98743075 109.52540079 3.36864604 118.43829101 3 129 C-9.98719961 124.44267359 -23.30552761 111.34434279 -29.7890625 99.5390625 C-33.08693926 92.62415962 -35.69828915 85.71876937 -36 78 C-36.0515625 76.83726562 -36.103125 75.67453125 -36.15625 74.4765625 C-36.89182752 49.7629891 -27.41529904 29.21889082 -11 11 C-7.42100077 7.24395201 -3.73072388 3.60520419 0 0 Z " fill="#029545" transform="translate(41,71)"/>
<path d="M0 0 C17.95770138 6.20967244 35.12960703 24.88046984 43.375 41.25 C50.7813513 58.46976677 51.10760571 77.9192607 44.8125 95.5 C38.39675801 111.30554515 27.74681808 122.37024927 14 132 C13.34 131.67 12.68 131.34 12 131 C12.0825 129.989375 12.165 128.97875 12.25 127.9375 C11.90922112 122.57023266 10.24103647 119.06175355 6.33984375 115.47265625 C2.53657254 112.52844014 -1.52468421 110.06731876 -5.625 107.5625 C-14.04498004 102.24032728 -18.81270769 95.73788346 -21.53491211 86.10766602 C-23.97206268 75.06308814 -21.89332125 62.7121775 -19 52 C-18.67 52 -18.34 52 -18 52 C-17.85304688 52.83402344 -17.70609375 53.66804688 -17.5546875 54.52734375 C-14.61662109 69.26833209 -6.03063307 78.25383705 4.625 88.4375 C10.37893595 94.12077358 15.82152249 100.80958129 17 109 C16.5953514 96.45589333 9.85426391 89.59273058 1.25952148 81.25219727 C-7.08827213 73.09737775 -15.41319361 63.50869261 -16.25 51.375 C-16.1675 50.59125 -16.085 49.8075 -16 49 C-14.04722692 50.75749577 -12.79274547 52.34818761 -11.4375 54.625 C-6.59147576 61.99386083 1.03915199 67.1169289 8.1875 72.0625 C13.57314712 75.81820448 18.2605077 79.50590721 22 85 C22.42925781 85.61488281 22.85851562 86.22976562 23.30078125 86.86328125 C27.57463124 94.42696767 26.32575313 103.61185692 26 112 C29.21092453 101.61930022 28.87477359 93.65110675 24.484375 83.69140625 C21.75928691 78.75039126 18.58949021 75.4315593 14 72.1875 C13.03707031 71.50429687 12.07414062 70.82109375 11.08203125 70.1171875 C7.97233897 67.98099838 4.83618505 65.89071056 1.6875 63.8125 C-13.59725477 53.64241123 -13.59725477 53.64241123 -15.53125 44.484375 C-15.77677082 42.31560774 -15.94445938 40.18123148 -16 38 C-14.90426767 39.6435985 -13.82666229 41.30216978 -12.84375 43.015625 C-7.7150345 51.54360542 -0.51647653 55.64554038 8.00854492 60.33544922 C20.61044638 67.26947505 30.21479652 74.74419366 34.875 89.0625 C36.16182189 93.98084381 36.68745943 98.93468739 37 104 C37.63032133 102.79443396 38.2539497 101.58536811 38.875 100.375 C39.22304687 99.70210938 39.57109375 99.02921875 39.9296875 98.3359375 C44.47184182 88.42276858 44.64699906 76.20067717 41.5625 65.75 C38.80135233 58.62703935 34.48632854 52.15163914 30 46 C29.67 46 29.34 46 29 46 C29.38671875 46.57105469 29.7734375 47.14210937 30.171875 47.73046875 C37.47724295 59.10442034 40.40188747 70.58426294 39 84 C37.9765625 86.43359375 37.9765625 86.43359375 37 88 C36.79246094 87.31035156 36.58492187 86.62070313 36.37109375 85.91015625 C32.62632751 74.48783578 26.58873318 68.18768051 17.21459961 61.10351562 C11.55051951 56.78483539 5.31162374 51.93487122 3 45 C2.86928669 42.03826798 2.79056168 39.09583706 2.75390625 36.1328125 C2.72096805 34.34244302 2.6877564 32.55207856 2.65429688 30.76171875 C2.60689927 27.94192954 2.56246046 25.1221607 2.52319336 22.30224609 C2.48340326 19.5788876 2.43187718 16.85594208 2.37890625 14.1328125 C2.3704921 13.29307892 2.36207794 12.45334534 2.35340881 11.58816528 C2.26296788 7.29072967 1.98295595 3.91830905 0 0 Z " fill="#8EC445" transform="translate(76,6)"/>
<path d="M0 0 C0.33 0 0.66 0 1 0 C1.67402797 19.02256704 -3.62578091 36.75566552 -16.05859375 51.4296875 C-26.69885504 62.69584651 -40.7409517 68.68666435 -54.875 74.3828125 C-70.71933551 80.75561221 -70.71933551 80.75561221 -85 90 C-85.59167969 90.41378906 -86.18335937 90.82757813 -86.79296875 91.25390625 C-92.92370935 95.77710047 -97.42171447 102.92235346 -100 110 C-100.33 110 -100.66 110 -101 110 C-100.62069463 98.62083888 -95.40361353 89.40522124 -87.56640625 81.296875 C-75.73194266 70.70530028 -59.74222401 65.30891176 -45.203125 59.46484375 C-34.14232627 55.00900385 -25.54153142 49.36327337 -17 41 C-16.43410156 40.47019531 -15.86820312 39.94039062 -15.28515625 39.39453125 C-7.17499446 31.02622108 -2.47959772 17.35718404 -0.875 6.125 C-0.70742187 4.97257813 -0.53984375 3.82015625 -0.3671875 2.6328125 C-0.18542969 1.32957031 -0.18542969 1.32957031 0 0 Z " fill="#7EB146" transform="translate(157,173)"/>
<path d="M0 0 C0.66 0 1.32 0 2 0 C2.58652344 0.89847656 3.17304687 1.79695313 3.77734375 2.72265625 C6.09716417 6.14327019 8.23532619 8.02297307 11.5625 10.4375 C12.61953125 11.20578125 13.6765625 11.9740625 14.765625 12.765625 C17.73893958 14.81965392 20.74747484 16.773976 23.8125 18.6875 C33.33004243 24.67698791 38.49112875 30.66326921 43.375 40.875 C45.06774057 49.33870287 44.36167821 57.07604423 41 65 C39.96090257 61.88270772 40.05650439 59.54320215 40.21899414 56.30053711 C40.64084013 46.2037689 38.99676405 38.65073726 32.08984375 30.83984375 C27.20445549 26.24666563 21.58615429 22.55887873 16.1081543 18.71704102 C8.86330352 13.57945941 2.87331807 8.61995422 0 0 Z " fill="#E8F3E1" transform="translate(61,55)"/>
<path d="M0 0 C1.04891126 2.07398363 2.06611531 4.1477423 3.015625 6.26953125 C7.59480661 15.70322501 14.76855227 22.57893147 22 30 C29.11536959 37.37728504 34.19559697 43.44030845 34.25 54.0625 C34.18675121 55.70922748 34.11063933 57.35577655 34 59 C33.67 59 33.34 59 33 59 C32.93683594 58.40574219 32.87367187 57.81148437 32.80859375 57.19921875 C30.8903136 44.21549102 22.8575999 36.61860319 13.85620117 27.84887695 C6.65065795 20.79002433 -0.22270318 13.30832157 -2 3 C-1 1 -1 1 0 0 Z " fill="#EAF4E5" transform="translate(60,61)"/>
<path d="M0 0 C0.33 0 0.66 0 1 0 C1.27990605 7.89957062 0.51537186 15.2472493 -1 23 C-1.99 22.34 -2.98 21.68 -4 21 C-3.79503906 19.98679688 -3.59007812 18.97359375 -3.37890625 17.9296875 C-3.10671869 16.5781355 -2.83458621 15.22657241 -2.5625 13.875 C-2.42779297 13.20984375 -2.29308594 12.5446875 -2.15429688 11.859375 C-1.36186273 7.91653193 -0.63707245 3.97087879 0 0 Z " fill="#9BC370" transform="translate(157,173)"/>
<path d="M0 0 C0.66 0.33 1.32 0.66 2 1 C1.45660208 5.56454251 0.20536179 8.9728176 -2 13 C-2.99 13 -3.98 13 -5 13 C-4.731875 12.34 -4.46375 11.68 -4.1875 11 C-2.74294953 7.35060933 -1.37128822 3.67754567 0 0 Z " fill="#9ACA5A" transform="translate(118,99)"/>
<path d="M0 0 C5.1154241 3.36156441 7.3265957 7.67594378 10 13 C9.01 13 8.02 13 7 13 C5.4296875 10.91796875 5.4296875 10.91796875 3.875 8.1875 C3.35679688 7.29417969 2.83859375 6.40085937 2.3046875 5.48046875 C1 3 1 3 0 0 Z " fill="#E4F2DB" transform="translate(103,49)"/>
<path d="M0 0 C0.33 0 0.66 0 1 0 C1.40368295 6.45892714 0.5915262 11.06108578 -2 17 C-2.66 16.67 -3.32 16.34 -4 16 C-3.79503906 15.43152344 -3.59007813 14.86304688 -3.37890625 14.27734375 C-1.70907331 9.4915546 -0.53623064 5.04056799 0 0 Z " fill="#DFEDD6" transform="translate(129,142)"/>
</svg>
